<svg xmlns="http://www.w3.org/2000/svg" xmlns:xlink="http://www.w3.org/1999/xlink" version="1.1" id="Layer_1" x="0px" y="0px" style="enable-background:new 0 0 1600 1200;" xml:space="preserve" viewBox="355.75 433.59 888.49 291.7">
<style type="text/css">
	.st0{fill:#135E97;}
	.st1{fill:#2393EC;}
	.st2{fill:#70B6F1;}
	.st3{fill:#A0D6F4;}
</style>
	<g>
	<g>
		<path class="st0" d="M399.16,723.94l-3.3-7.67h-25.43l-3.23,7.67c-0.4,0.9-1.1,1.34-2.09,1.34h-8.34c-0.45,0-0.75-0.14-0.91-0.44 c-0.16-0.29-0.15-0.64,0.03-1.04l19.71-44.26c0.31-0.9,1.01-1.34,2.09-1.34h11.44c0.99,0,1.68,0.45,2.09,1.34l19.71,44.26 c0.18,0.4,0.19,0.75,0.03,1.04c-0.16,0.29-0.44,0.44-0.84,0.44h-8.88C400.26,725.29,399.56,724.84,399.16,723.94z M383.15,686.34 l-9.08,21.32h18.16L383.15,686.34z"/>
		<path class="st0" d="M421.22,678.2h42.78c0.99,0,1.48,0.47,1.48,1.41v5.99c0,0.94-0.49,1.41-1.48,1.41h-33.37v10.23h28.05 c1.03,0,1.55,0.47,1.55,1.41v5.78c0,0.94-0.52,1.41-1.55,1.41h-28.05v10.63h33.37c0.99,0,1.48,0.47,1.48,1.41v5.99 c0,0.94-0.49,1.41-1.48,1.41h-42.78c-0.99,0-1.48-0.47-1.48-1.41v-44.26C419.74,678.67,420.24,678.2,421.22,678.2z"/>
		<path class="st0" d="M513.71,678.2c3.81,0,6.6,0.84,8.37,2.52c1.77,1.68,2.66,4.34,2.66,7.97v9.28c0,3.68-0.89,6.42-2.66,8.24 c-1.77,1.82-4.56,2.72-8.37,2.72h-1.82l14.26,14.93c0.31,0.27,0.4,0.57,0.27,0.91c-0.13,0.34-0.38,0.5-0.74,0.5h-10.16 c-1.08,0-1.91-0.36-2.49-1.08l-13.25-14.8h-11.97v14.46c0,0.94-0.52,1.41-1.55,1.41h-7.87c-0.99,0-1.48-0.47-1.48-1.41v-44.26 c0-0.94,0.49-1.41,1.48-1.41H513.71z M487.82,687.01v13.59h20.52c2.33,0,3.83-0.29,4.51-0.87c0.67-0.58,1.01-1.86,1.01-3.83v-4.17 c0-1.97-0.34-3.25-1.01-3.83c-0.67-0.58-2.18-0.87-4.51-0.87H487.82z"/>
		<path class="st0" d="M584.82,688.96v25.56c0,3.72-0.91,6.45-2.72,8.17c-1.82,1.73-4.65,2.59-8.51,2.59h-27.04 c-3.86,0-6.7-0.87-8.54-2.62c-1.84-1.75-2.76-4.46-2.76-8.14v-25.56c0-3.68,0.92-6.39,2.76-8.14c1.84-1.75,4.69-2.62,8.54-2.62 h27.04c3.86,0,6.69,0.86,8.51,2.59C583.91,682.51,584.82,685.24,584.82,688.96z M573.92,711.43v-19.37c0-2.11-0.38-3.47-1.14-4.1 c-0.76-0.63-2.38-0.94-4.84-0.94h-15.81c-2.47,0-4.08,0.31-4.84,0.94c-0.76,0.63-1.14,2-1.14,4.1v19.37c0,2.11,0.38,3.48,1.14,4.1 c0.76,0.63,2.38,0.94,4.84,0.94h15.81c2.47,0,4.08-0.31,4.84-0.94C573.54,714.9,573.92,713.54,573.92,711.43z"/>
		<path class="st0" d="M598.61,678.2H613c1.08,0,1.77,0.45,2.09,1.34L628,714.39l12.85-34.85c0.31-0.9,1.01-1.34,2.09-1.34h14.6 c1.03,0,1.55,0.47,1.55,1.41v44.26c0,0.94-0.52,1.41-1.55,1.41h-7.87c-0.99,0-1.48-0.47-1.48-1.41v-36.66l-13.92,36.73 c-0.27,0.9-0.97,1.34-2.09,1.34h-8.88c-1.08,0-1.77-0.45-2.09-1.34l-13.99-36.86v36.79c0,0.94-0.49,1.41-1.48,1.41h-7.13 c-0.99,0-1.48-0.47-1.48-1.41v-44.26C597.13,678.67,597.62,678.2,598.61,678.2z"/>
		<path class="st0" d="M711.01,723.94l-3.3-7.67h-25.43l-3.23,7.67c-0.4,0.9-1.1,1.34-2.09,1.34h-8.34c-0.45,0-0.75-0.14-0.91-0.44 c-0.16-0.29-0.15-0.64,0.03-1.04l19.71-44.26c0.31-0.9,1.01-1.34,2.09-1.34h11.43c0.99,0,1.68,0.45,2.09,1.34l19.71,44.26 c0.18,0.4,0.19,0.75,0.03,1.04c-0.16,0.29-0.44,0.44-0.84,0.44h-8.88C712.11,725.29,711.41,724.84,711.01,723.94z M695,686.34 l-9.08,21.32h18.16L695,686.34z"/>
		<path class="st0" d="M781.17,679.61l-20.25,21.93l20.72,22.33c0.27,0.31,0.35,0.63,0.24,0.94c-0.11,0.31-0.37,0.47-0.77,0.47 h-10.29c-0.99,0-1.77-0.36-2.35-1.08l-16.75-18.43h-9.22v18.09c0,0.94-0.52,1.41-1.55,1.41h-7.87c-0.99,0-1.48-0.47-1.48-1.41 v-44.26c0-0.94,0.49-1.41,1.48-1.41h7.87c1.03,0,1.55,0.47,1.55,1.41v17.49h9.89l16.21-17.83c0.58-0.72,1.37-1.08,2.35-1.08h9.75 c0.36,0,0.59,0.16,0.71,0.47C781.52,678.98,781.44,679.3,781.17,679.61z"/>
		<path class="st0" d="M792.61,678.2h42.78c0.99,0,1.48,0.47,1.48,1.41v5.99c0,0.94-0.49,1.41-1.48,1.41h-33.37v10.23h28.05 c1.03,0,1.55,0.47,1.55,1.41v5.78c0,0.94-0.52,1.41-1.55,1.41h-28.05v10.63h33.37c0.99,0,1.48,0.47,1.48,1.41v5.99 c0,0.94-0.49,1.41-1.48,1.41h-42.78c-0.99,0-1.48-0.47-1.48-1.41v-44.26C791.13,678.67,791.62,678.2,792.61,678.2z"/>
		<path class="st1" d="M910.26,723.94l-3.3-7.67h-25.43l-3.23,7.67c-0.4,0.9-1.1,1.34-2.09,1.34h-8.34c-0.45,0-0.75-0.14-0.91-0.44 c-0.16-0.29-0.15-0.64,0.03-1.04l19.71-44.26c0.31-0.9,1.01-1.34,2.09-1.34h11.44c0.99,0,1.68,0.45,2.09,1.34l19.71,44.26 c0.18,0.4,0.19,0.75,0.03,1.04c-0.16,0.29-0.44,0.44-0.84,0.44h-8.88C911.35,725.29,910.66,724.84,910.26,723.94z M894.25,686.34 l-9.08,21.32h18.16L894.25,686.34z"/>
		<path class="st1" d="M951.42,725.29h-11.5c-0.99,0-1.68-0.45-2.09-1.34l-18.5-44.26c-0.18-0.4-0.19-0.75-0.03-1.04 c0.16-0.29,0.46-0.44,0.91-0.44h8.81c1.08,0,1.77,0.45,2.09,1.34l14.8,37.06l14.8-37.06c0.31-0.9,1.01-1.34,2.09-1.34h8.34 c0.45,0,0.75,0.15,0.91,0.44c0.16,0.29,0.15,0.64-0.03,1.04l-18.57,44.26C953.13,724.84,952.46,725.29,951.42,725.29z"/>
		<path class="st1" d="M991.72,679.61v44.26c0,0.94-0.52,1.41-1.55,1.41h-7.87c-0.99,0-1.48-0.47-1.48-1.41v-44.26 c0-0.94,0.49-1.41,1.48-1.41h7.87C991.2,678.2,991.72,678.67,991.72,679.61z"/>
		<path class="st1" d="M1043.71,723.94l-3.3-7.67h-25.43l-3.23,7.67c-0.4,0.9-1.1,1.34-2.09,1.34h-8.34c-0.45,0-0.75-0.14-0.91-0.44 c-0.16-0.29-0.15-0.64,0.03-1.04l19.71-44.26c0.31-0.9,1.01-1.34,2.09-1.34h11.44c0.99,0,1.68,0.45,2.09,1.34l19.71,44.26 c0.18,0.4,0.19,0.75,0.03,1.04c-0.16,0.29-0.44,0.44-0.84,0.44h-8.88C1044.81,725.29,1044.12,724.84,1043.71,723.94z  M1027.7,686.34l-9.08,21.32h18.16L1027.7,686.34z"/>
		<path class="st1" d="M1070.89,723.87v-36.86h-16.68c-0.99,0-1.48-0.47-1.48-1.41v-5.99c0-0.94,0.49-1.41,1.48-1.41h44.19 c0.99,0,1.48,0.47,1.48,1.41v5.99c0,0.94-0.49,1.41-1.48,1.41h-16.61v36.86c0,0.94-0.52,1.41-1.55,1.41h-7.87 C1071.38,725.29,1070.89,724.81,1070.89,723.87z"/>
		<path class="st1" d="M1120.13,679.61v44.26c0,0.94-0.52,1.41-1.55,1.41h-7.87c-0.99,0-1.48-0.47-1.48-1.41v-44.26 c0-0.94,0.49-1.41,1.48-1.41h7.87C1119.61,678.2,1120.13,678.67,1120.13,679.61z"/>
		<path class="st1" d="M1182.08,688.96v25.56c0,3.72-0.91,6.45-2.72,8.17c-1.82,1.73-4.65,2.59-8.51,2.59h-27.04 c-3.86,0-6.7-0.87-8.54-2.62c-1.84-1.75-2.76-4.46-2.76-8.14v-25.56c0-3.68,0.92-6.39,2.76-8.14c1.84-1.75,4.69-2.62,8.54-2.62 h27.04c3.86,0,6.69,0.86,8.51,2.59C1181.17,682.51,1182.08,685.24,1182.08,688.96z M1171.19,711.43v-19.37 c0-2.11-0.38-3.47-1.14-4.1c-0.76-0.63-2.38-0.94-4.84-0.94h-15.81c-2.47,0-4.08,0.31-4.84,0.94c-0.76,0.63-1.14,2-1.14,4.1v19.37 c0,2.11,0.38,3.48,1.14,4.1c0.76,0.63,2.38,0.94,4.84,0.94h15.81c2.47,0,4.08-0.31,4.84-0.94 C1170.8,714.9,1171.19,713.54,1171.19,711.43z"/>
		<path class="st1" d="M1242.76,725.29h-13.66c-0.99,0-1.68-0.38-2.09-1.14l-22.53-37.2v36.93c0,0.94-0.49,1.41-1.48,1.41h-7.13 c-0.99,0-1.48-0.47-1.48-1.41v-44.26c0-0.94,0.49-1.41,1.48-1.41h13.59c0.94,0,1.64,0.38,2.09,1.14l22.53,37.27v-37 c0-0.94,0.52-1.41,1.55-1.41h7.13c0.99,0,1.48,0.47,1.48,1.41v44.26C1244.24,724.81,1243.74,725.29,1242.76,725.29z"/>
	</g>

		<g>
		<polygon class="st1" points="1122.55,510.81 1137.64,511.99 1130.88,519.25"/>
			<polygon class="st2" points="825.52,598.29 823.7,608.44 813.79,599.35"/>
			<polygon class="st3" points="796.71,596.89 768.44,599.69 779.92,581.82"/>
			<polygon class="st1" points="1197.78,433.76 1192.62,448.25 1183.67,433.59"/>
			<polygon class="st0" points="1179.78,572.15 1138.96,582.53 1158.47,558.23"/>
			<polygon class="st0" points="1170.35,463.42 1177.81,475.63 1165.51,483.94"/>
			<polygon class="st2" points="1181.45,440.92 1188.91,453.13 1176.6,461.44"/>
			<polygon class="st2" points="1153.79,447.18 1160.8,445.65 1162.72,452.84"/>
			<polygon class="st0" points="1161.05,503.47 1168.06,501.94 1169.98,509.13"/>
			<polygon class="st0" points="1169.43,452.61 1164.73,439.09 1178.52,433.59"/>
			<polygon class="st2" points="1160.8,494.26 1183.8,488.75 1180.8,502.62"/>
			<polygon class="st1" points="1152.25,545.09 1152.44,525.73 1174.98,515.13"/>
			<polygon class="st1" points="1148.1,474.81 1151.22,461.58 1168.3,457.8"/>
			<polygon class="st2" points="1128.07,472.26 1139.26,442.24 1151.2,455.03"/>
			<polygon class="st0" points="1135.06,546.84 1135.06,546.84 1116.45,539.08 1140.57,528.87"/>
			<polygon class="st0" points="1108.77,560.43 1108.77,560.43 1100.8,570.35 1098.84,553.93"/>
			<polygon class="st2" points="1022.49,569.85 1022.48,569.85 1009.76,570.29 1020.92,558.08"/>
			<polygon class="st0" points="1155.1,494.12 1158.66,519.69 1143,509.46"/>
			<polygon class="st0" points="1132.88,485.27 1122.21,498.8 1122.21,476.38"/>
			<polygon class="st2" points="1117.35,577.16 1113.45,557.25 1125.26,563.37"/>
			<polygon class="st0" points="1106.01,589.09 1122.72,577.56 1121.81,590.84"/>
			<polygon class="st1" points="1100.64,597.77 1089.64,584.56 1101.97,581.83"/>
			<polygon class="st1" points="1091.81,590.2 1084.57,602.45 1079.01,593.6"/>
			<polygon class="st1" points="1094.89,499.44 1110.06,487.48 1108.38,501.09"/>
			<polygon class="st2" points="1088.57,509.66 1104.77,520.34 1096.48,540.66"/>
			<polygon class="st1" points="1100.55,554.39 1098.9,542.33 1111.92,537.86"/>
			<polygon class="st0" points="1067.87,532.73 1081.54,520.8 1078.04,533.96"/>
			<polygon class="st1" points="1079.6,537.14 1075.76,571.1 1069.17,559.35"/>
			<polygon class="st2" points="1093.16,554.54 1089.53,568.68 1084.08,551.62"/>
			<polygon class="st0" points="1081.69,537.49 1092.53,527.72 1087.64,544.95"/>
			<polygon class="st2" points="1150.83,550.42 1147.2,564.56 1141.75,547.5"/>
			<polygon class="st1" points="1077.81,573.36 1097.15,571.92 1072.21,582.56"/>
			<polygon class="st1" points="1140.57,572.82 1129.94,589.05 1136.68,562.78"/>
			<polygon class="st1" points="1131.42,543.03 1120.79,559.26 1127.53,532.99"/>
			<polygon class="st0" points="1101.28,501.36 1117.2,512.45 1091.13,504.97"/>
			<polygon class="st0" points="1071.81,570.76 1060.31,594.35 1056.87,571.64"/>
			<polygon class="st0" points="1077.65,599.38 1057.67,607.22 1049.61,594.75"/>
			<polygon class="st2" points="1060.92,539.17 1065.7,554.12 1057.15,551.37"/>
			<polygon class="st0" points="1057.88,541.89 1052.37,559.69 1039.3,554.82 1047.94,547.9"/>
			<polygon class="st0" points="1041.99,565.49 1037.63,575.26 1027.2,568.61"/>
			<polygon class="st1" points="1040.79,570.49 1016.73,549.8 1035.93,554.57"/>
			<polygon class="st2" points="1050.63,586.89 1038.11,597.65 1036.9,579.16"/>
			<polygon class="st2" points="1012.55,599.27 1052.37,610.71 1033.18,616.55"/>
			<polygon class="st2" points="1045.76,539.88 1034.03,549.27 1021.75,544.69"/>
			<polygon class="st0" points="1033.11,587.14 1026.71,596.27 1012.97,595.81"/>
			<polygon class="st0" points="1039.99,586.35 1041.87,597.34 1031.78,606.68"/>
			<polygon class="st1" points="1059.91,565.81 1053.51,574.94 1039.78,574.48"/>
			<polygon class="st1" points="1022.38,607.55 1015.98,616.67 1002.24,616.22"/>
			<polygon class="st1" points="1022.86,594.61 1004.97,575.58 1023.21,574.56"/>
			<polygon class="st2" points="1012.31,608.92 1000.41,604.42 1008.46,591.43"/>
			<polygon class="st2" points="1118.66,532.64 1106.75,528.13 1114.81,515.15"/>
			<polygon class="st0" points="1158.15,469.61 1151.08,480.2 1140.24,469.43"/>
			<polygon class="st2" points="1144.64,501.2 1133.29,495.44 1142.69,483.39"/>
			<polygon class="st0" points="1007.74,543.68 1016.07,558.66 995.35,556.06"/>
			<polygon class="st1" points="1006.36,555.64 1000.84,568.69 991.85,552.8"/>
			<polygon class="st2" points="942.65,574.89 943.65,560.75 957.3,572.89"/>
			<polygon class="st0" points="1004.97,572.7 997.86,588.36 985.56,574.11"/>
			<polygon class="st0" points="993.45,588.74 988.59,605.24 974.42,592.85"/>
			<polygon class="st1" points="990.96,606.76 996.91,616.18 978.55,617.46"/>
			<polygon class="st2" points="983.68,575.72 979.88,594.46 964.46,578.54"/>
			<polygon class="st2" points="948.46,588.04 955.54,597.46 941.9,598.05"/>
			<polygon class="st2" points="894.45,591.06 901.53,600.48 887.89,601.07"/>
			<polygon class="st2" points="985.22,555.74 992.3,565.16 978.66,565.75"/>
			<polygon class="st0" points="977.44,602.37 974.77,613.11 967.57,610.01"/>
			<polygon class="st1" points="966.06,603.31 959.43,594.45 966.38,590.83"/>
			<polygon class="st2" points="981.25,558.97 973.34,549.43 983.77,545.33"/>
			<polygon class="st1" points="974.44,559.04 967.01,574.12 953.39,552.51"/>
			<polygon class="st0" points="963.67,576.77 956.44,587.8 948.73,577.06 948.72,576.77 948.73,576.77"/>
			<polygon class="st0" points="954.62,602.78 963.91,617.99 939.6,617.98"/>
			<polygon class="st0" points="954.62,504.2 959.92,525.14 946.35,523.48"/>
			<polygon class="st0" points="958.21,544.9 941.29,559.37 941.28,559.37 940.65,542.75"/>
			<polygon class="st2" points="962.91,543.53 951.7,536.39 951.69,536.38 961.08,533.13"/>
			<polygon class="st0" points="951.42,527.98 945.57,539.91 945.56,539.92 941.29,530.95"/>
			<polygon class="st1" points="938.8,574.09 949.9,589.55 930.79,589.55"/>
			<polygon class="st1" points="844.93,571.96 850.6,579.87 840.84,579.87"/>
			<polygon class="st0" points="942.53,608.37 927.37,603.74 933.92,591.94"/>
			<polygon class="st1" points="948.39,505.19 935.46,535.33 926.61,517.09"/>
			<polygon class="st2" points="935.36,564.3 935.38,564.84 915.14,565.48 934.7,546.72"/>
			<polygon class="st0" points="923.58,565.55 932.97,582.63 914.11,580.69"/>
			<polygon class="st1" points="922.41,602.12 932.5,617.45 910.64,617.45"/>
			<polygon class="st3" points="923.26,519.51 932.27,538.1 908.12,531.98"/>
			<polygon class="st1" points="921.83,542.9 910,554.24 909.28,539.72"/>
			<polygon class="st2" points="919.98,594.59 912.77,601.49 912.33,592.65"/>
			<polygon class="st2" points="911.04,560.29 903.84,567.2 903.39,558.36"/>
			<polygon class="st1" points="907.46,574.09 916.16,590.48 896.83,590.48"/>
			<polygon class="st0" points="914.11,605.37 906.41,615.39 898.88,605.37"/>
			<polygon class="st0" points="900.74,538.1 901.74,558.19 888.95,544.42"/>
			<polygon class="st1" points="886.8,551.27 899.29,564.71 881.19,565.49"/>
			<polygon class="st0" points="898.77,570.09 887.85,586.93 879.12,570.94"/>
			<polygon class="st2" points="890.84,606.77 898.88,617.46 884.01,617.47"/>
			<polygon class="st1" points="875.72,578.26 883.21,591.98 867.71,592.61"/>
			<polygon class="st0" points="885.66,596.07 874.12,614.15 860.68,597.09"/>
			<polygon class="st0" points="879.41,544.62 873.99,558.38 863.84,544.62"/>
			<polygon class="st3" points="860.84,604.51 871.45,617.99 850.85,619.03"/>
			<polygon class="st3" points="855.53,546.98 868.19,564.15 845.72,565.21"/>
			<polygon class="st2" points="832.69,567.05 825.41,569.74 827.31,561.78"/>
			<polygon class="st1" points="817.59,566.92 807.63,570.6 810.23,559.7"/>
			<polygon class="st2" points="875,584.53 852.67,590.88 856.85,568.04"/>
			<polygon class="st1" points="840.99,583.91 847.23,592.96 835.77,593.31"/>
			<polygon class="st0" points="853.96,601.75 844.58,615.39 833.45,602.38"/>
			<polygon class="st0" points="852.57,544.62 842.76,562.85 832.42,544.62"/>
			<polygon class="st1" points="828.36,605.89 839.89,619.38 818.21,620.03"/>
			<polygon class="st1" points="824.85,544.62 832.05,557.32 818.98,558.38"/>
			<polygon class="st0" points="837.46,574.11 828.38,590.46 820.64,575.47"/>
			<polygon class="st0" points="814.93,580.53 822.23,594.65 805.35,594.65"/>
			<polygon class="st0" points="819.77,608.53 813.41,617.39 807.8,608.53"/>
			<polygon class="st1" points="809.7,598.24 800.7,610.78 792.75,598.24"/>
			<polygon class="st0" points="816.99,544.7 812.48,555.3 803.59,544.7"/>
			<polygon class="st2" points="792.13,551.13 806.67,568.47 782.57,570.43"/>
			<polygon class="st1" points="815.28,573.69 801.27,594.33 781.36,576.45"/>
			<polygon class="st2" points="797.17,608.57 804.44,620.03 786.75,620.03"/>
			<polygon class="st0" points="792.09,601.59 777.93,617.16 763.48,604.43"/>
			<polygon class="st0" points="790.89,544.62 774.86,576.98 758.63,544.58"/>
			<polygon class="st0" points="773.51,620.03 750.54,618.73 750.53,618.73 758.88,607.14"/>
			<polygon class="st1" points="758.63,544.58 774.86,576.98 745.21,578.51"/>
			<polygon class="st0" points="777.78,578.51 761.55,603.78 748.13,580.04"/>
			<polygon class="st3" points="758.63,544.58 745.21,578.51 719.5,544.58"/>
			<polygon class="st3" points="745.21,578.51 758.63,602.25 727.44,607.14"/>
			<polygon class="st1" points="758.63,602.25 747.1,618.23 727.44,607.14"/>
			<polygon class="st0" points="727.44,607.14 747.1,618.23 736.83,632.49"/>
			<polygon class="st1" points="719.5,544.58 745.21,578.51 704.47,566.61"/>
			<polygon class="st1" points="745.21,578.51 727.44,607.14 713.73,582.95"/>
			<polygon class="st0" points="745.21,578.51 713.73,582.95 704.47,566.61"/>
			<polygon class="st1" points="727.44,607.14 736.83,632.49 718.04,637.31"/>
			<polygon class="st0" points="713.73,582.95 727.44,607.14 680.79,587.59"/>
			<polygon class="st0" points="727.44,607.14 718.04,637.31 687.16,617.46"/>
			<polygon class="st1" points="727.44,607.14 687.16,617.46 680.79,587.59"/>
			<polygon class="st0" points="719.5,544.58 704.47,566.61 682.32,544.61"/>
			<polygon class="st3" points="718.04,637.31 694.6,638.81 687.16,617.46"/>
			<polygon class="st1" points="713.73,582.95 680.79,587.59 704.47,566.61"/>
			<polygon class="st0" points="704.47,566.61 680.79,587.59 672.37,566.69"/>
			<polygon class="st1" points="704.47,566.61 672.37,566.69 682.32,544.61"/>
			<polygon class="st1" points="687.16,617.46 694.6,638.81 663.89,635.98"/>
			<polygon class="st2" points="680.79,587.59 687.16,617.46 652.49,588.61"/>
			<polygon class="st0" points="687.16,617.46 663.89,635.98 662.7,619.98"/>
			<polygon class="st1" points="687.16,617.46 662.7,619.98 652.49,588.61"/>
			<polygon class="st2" points="682.32,544.61 672.37,566.69 663.96,554.36"/>
			<polygon class="st1" points="682.32,544.61 663.96,554.36 657.29,544.58"/>
			<polygon class="st1" points="672.37,566.69 680.79,587.59 652.49,588.61"/>
			<polygon class="st1" points="663.96,554.36 672.37,566.69 642.28,565.9"/>
			<polygon class="st0" points="672.37,566.69 652.49,588.61 642.28,565.9"/>
			<polygon class="st0" points="663.96,554.36 642.28,565.9 657.29,544.58"/>
			<polygon class="st0" points="652.49,588.61 662.7,619.98 630.82,617.44"/>
			<polygon class="st1" points="657.29,544.58 642.28,565.9 625.86,544.58"/>
			<polygon class="st1" points="642.28,565.9 652.49,588.61 630.82,617.44"/>
			<polygon class="st0" points="625.86,544.58 642.28,565.9 611.91,565.9"/>
			<polygon class="st3" points="642.28,565.9 630.82,617.44 616.82,579.27"/>
			<polygon class="st1" points="642.28,565.9 616.82,579.27 611.91,565.9"/>
			<polygon class="st1" points="616.82,579.27 630.82,617.44 600.26,587.97"/>
			<polygon class="st0" points="630.82,617.44 591.79,617.44 600.26,587.97"/>
			<polygon class="st1" points="625.86,544.58 611.91,565.9 595.63,544.61"/>
			<polygon class="st0" points="611.91,565.9 616.82,579.27 600.26,587.97"/>
			<polygon class="st3" points="595.63,544.61 611.91,565.9 578.19,570.32"/>
			<polygon class="st1" points="611.91,565.9 600.26,587.97 578.19,570.32"/>
			<polygon class="st1" points="600.26,587.97 591.79,617.44 574.25,601.64"/>
			<polygon class="st2" points="600.26,587.97 574.25,601.64 578.19,570.32"/>
			<polygon class="st0" points="595.63,544.61 578.19,570.32 569.74,544.61"/>
			<polygon class="st0" points="591.79,617.44 557.85,617.44 574.25,601.64"/>
			<polygon class="st2" points="569.74,544.61 578.19,570.32 544.66,575.62"/>
			<polygon class="st0" points="578.19,570.32 574.25,601.64 544.66,575.62"/>
			<polygon class="st1" points="574.25,601.64 557.85,617.44 552.87,601.64"/>
			<polygon class="st3" points="574.25,601.64 552.87,601.64 544.66,575.62"/>
			<polygon class="st0" points="569.74,544.61 544.66,575.62 543.38,544.61"/>
			<polygon class="st0" points="552.87,601.64 557.85,617.44 540.98,601.64"/>
			<polygon class="st1" points="557.85,617.44 533.39,617.44 540.98,601.64"/>
			<polygon class="st1" points="544.66,575.62 552.87,601.64 540.98,601.64"/>
			<polygon class="st1" points="543.38,544.61 544.66,575.62 519.04,572.31"/>
			<polygon class="st0" points="544.66,575.62 540.98,601.64 519.04,572.31"/>
			<polygon class="st3" points="543.38,544.61 519.04,572.31 509.16,544.58"/>
			<polygon class="st1" points="519.04,572.31 540.98,601.64 498.29,583.73"/>
			<polygon class="st0" points="540.98,601.64 533.39,617.44 524.64,609.04"/>
			<polygon class="st2" points="540.98,601.64 524.64,609.04 509.18,594.19"/>
			<polygon class="st2" points="540.98,601.64 509.18,594.19 498.29,583.73"/>
			<polygon class="st1" points="533.39,617.44 506.07,617.46 524.64,609.04"/>
			<polygon class="st0" points="509.18,594.19 524.64,609.04 506.07,617.46 500.22,592.09"/>
			<polygon class="st1" points="509.16,544.58 519.04,572.31 497.18,562.49"/>
			<polygon class="st0" points="519.04,572.31 498.29,583.73 497.18,562.49"/>
			<polygon class="st0" points="498.29,583.73 509.18,594.19 500.22,592.09"/>
			<polygon class="st0" points="509.16,544.58 497.18,562.49 485.56,546.52"/>
			<polygon class="st1" points="500.22,592.09 506.07,617.46 480.64,587.5"/>
			<polygon class="st0" points="480.64,587.5 506.07,617.46 481.19,607.33"/>
			<polygon class="st1" points="506.07,617.46 481.47,617.44 481.19,607.33"/>
			<polygon class="st3" points="498.29,583.73 500.22,592.09 480.64,587.5"/>
			<polygon class="st1" points="497.18,562.49 498.29,583.73 479.4,569.44"/>
			<polygon class="st0" points="498.29,583.73 480.64,587.5 479.4,569.44"/>
			<polygon class="st1" points="485.56,546.52 497.18,562.49 482.32,558.57"/>
			<polygon class="st0" points="497.18,562.49 479.4,569.44 482.32,558.57"/>
			<polygon class="st3" points="485.56,546.52 482.32,558.57 474.69,556.56"/>
			<polygon class="st1" points="485.56,546.52 474.69,556.56 469.58,555.21"/>
			<polygon class="st1" points="485.56,546.52 469.58,555.21 456.45,551.74"/>
			<polygon class="st3" points="482.32,558.57 479.4,569.44 469.38,570.85 465.47,565.06 474.69,556.56"/>
			<polygon class="st0" points="481.19,607.33 481.47,617.44 467.23,601.64"/>
			<polygon class="st1" points="467.23,601.64 481.47,617.44 457.36,616.05"/>
			<polygon class="st1" points="480.64,587.5 481.19,607.33 467.23,601.64"/>
			<polygon class="st1" points="479.4,569.44 480.64,587.5 473.03,576.25"/>
			<polygon class="st0" points="473.03,576.25 480.64,587.5 462.48,587.5"/>
			<polygon class="st3" points="480.64,587.5 467.23,601.64 462.48,587.5"/>
			<polygon class="st1" points="479.4,569.44 473.03,576.25 469.38,570.85"/>
			<polygon class="st0" points="474.69,556.56 465.47,565.06 461.69,559.49 469.58,555.21"/>
			<polygon class="st2" points="469.38,570.85 473.03,576.25 462.48,587.5 457.36,572.54"/>
			<polygon class="st0" points="456.45,551.74 469.58,555.21 461.69,559.49"/>
			<polygon class="st2" points="469.38,570.85 457.36,572.54 465.47,565.06"/>
			<polygon class="st0" points="462.48,587.5 467.23,601.64 442.05,598.76"/>
			<polygon class="st0" points="467.23,601.64 457.36,616.05 449.56,607.38"/>
			<polygon class="st1" points="467.23,601.64 449.56,607.38 442.05,598.76"/>
			<polygon class="st1" points="465.47,565.06 457.36,572.54 456.9,562.09 461.69,559.49"/>
			<polygon class="st0" points="457.36,572.54 462.48,587.5 441.06,585.22"/>
			<polygon class="st1" points="462.48,587.5 442.05,598.76 441.06,585.22"/>
			<polygon class="st1" points="461.69,559.49 456.9,562.09 456.45,551.74"/>
			<polygon class="st0" points="456.9,562.09 457.36,572.54 439.95,571.3"/>
			<polygon class="st0" points="449.56,607.38 457.36,616.05 438.37,611.92"/>
			<polygon class="st1" points="457.36,572.54 441.06,585.22 439.95,571.3"/>
			<polygon class="st2" points="456.45,551.74 456.9,562.09 439.95,571.3"/>
			<polygon class="st1" points="456.45,551.74 439.95,571.3 439.72,558.02"/>
			<polygon class="st0" points="442.05,598.76 449.56,607.38 432.16,603.05"/>
			<polygon class="st1" points="449.56,607.38 438.37,611.92 432.16,603.05"/>
			<polygon class="st0" points="441.06,585.22 442.05,598.76 428.02,589.31"/>
			<polygon class="st2" points="442.05,598.76 432.16,603.05 428.02,589.31"/>
			<polygon class="st0" points="439.95,571.3 441.06,585.22 428.02,577.49"/>
			<polygon class="st2" points="441.06,585.22 428.02,589.31 428.02,577.49"/>
			<polygon class="st0" points="439.72,558.02 439.95,571.3 433.57,568.26"/>
			<polygon class="st1" points="439.95,571.3 428.02,577.49 433.57,568.26"/>
			<polygon class="st2" points="439.72,558.02 433.57,568.26 427.28,565.26"/>
			<polygon class="st0" points="432.16,603.05 438.37,611.92 424.36,607.69"/>
			<polygon class="st0" points="433.57,568.26 428.02,577.49 427.28,565.26"/>
			<polygon class="st0" points="428.02,589.31 432.16,603.05 420.33,596.93"/>
			<polygon class="st1" points="432.16,603.05 424.36,607.69 420.33,596.93"/>
			<polygon class="st0" points="428.02,577.49 428.02,589.31 416.11,574.08"/>
			<polygon class="st2" points="427.28,565.26 428.02,577.49 416.11,574.08"/>
			<polygon class="st1" points="416.11,574.08 428.02,589.31 420.33,596.93"/>
			<polygon class="st0" points="420.33,596.93 424.36,607.69 413.18,603.05"/>
			<polygon class="st2" points="416.11,574.08 420.33,596.93 411.31,593.76"/>
			<polygon class="st1" points="420.33,596.93 413.18,603.05 411.31,593.76"/>
			<polygon class="st1" points="416.11,574.08 411.31,593.76 408.51,581.23"/>
			<polygon class="st0" points="411.31,593.76 413.18,603.05 404.42,596.93"/>
			<polygon class="st0" points="408.51,581.23 411.31,593.76 402.22,590.04"/>
			<polygon class="st1" points="411.31,593.76 404.42,596.93 402.22,590.04"/>
			<polygon class="st2" points="1010.04,586.56 999.79,590.94 988.36,583.3"/>
	</g>
</g>
</svg>